<?xml version="1.0" encoding="UTF-8" standalone="no"?>
<svg
   version="1.1"
   width="631"
   height="735"
   id="svg166"
   sodipodi:docname="logo-maca-tea-limpo2.svg"
   inkscape:version="1.4.3 (0d15f75, 2025-12-25)"
   xmlns:inkscape="http://www.inkscape.org/namespaces/inkscape"
   xmlns:sodipodi="http://sodipodi.sourceforge.net/DTD/sodipodi-0.dtd"
   xmlns="http://www.w3.org/2000/svg"
   xmlns:svg="http://www.w3.org/2000/svg">
  <defs
     id="defs166" />
  <sodipodi:namedview
     id="namedview166"
     pagecolor="#ffffff"
     bordercolor="#666666"
     borderopacity="1.0"
     inkscape:showpageshadow="2"
     inkscape:pageopacity="0.0"
     inkscape:pagecheckerboard="0"
     inkscape:deskcolor="#d1d1d1"
     showgrid="false"
     inkscape:zoom="0.48339844"
     inkscape:cx="510.96566"
     inkscape:cy="512"
     inkscape:window-width="1366"
     inkscape:window-height="697"
     inkscape:window-x="-8"
     inkscape:window-y="-8"
     inkscape:window-maximized="1"
     inkscape:current-layer="svg166" />
  <path
     d="m 531.06263,21.985859 h 48 l 1,5 -2,5 -2,4 h -2 l -1,5 -5,11 h -2 l -1,5 -4,9 -1,2 h -2 v 2 h -2 l -1,5 -4,5 -6,9 -3,5 h -2 v 2 h -2 l -2,5.000001 -9,10 h -2 l -2,4 -5,5 -11,10 -5,2 v 2 l -11,8 -2,2 h -3 l -1,3 -10,2 v 2 l -6,3 -4,1 v 2 l -10,4 -12,5 -22,7 -10,2 -21,2 -3,1 h -35 l -2,-1 -9,-1 2,-4 3,-5 6,-10 h 2 l 2,-7 h 2 l 2,-5 4,-5 1,-2 h 2 v -2 h 2 l 2,-5 8,-9 8,-7 3,-5 7,-7 h 2 v -2 l 8,-7.000001 6,-2 v -2 l 6,-5 5,-3 h 2 v -2 h 2 v -2 l 5,-3 h 2 v -2 l -10,4 h -2 v 2 l -10,5 -5,3 -6,4 -2,2 -8,3 -4,1 v 2 l -5,2.000001 -1,4 -10,9 -1,2 -5,3 -5,5 -9,10 -3,3 -1,3 h -2 l -2,4 -7,12 h -3 l -2,5 -7,10 -3,7 h -2 l -1,5 -5,11 -4,10 -4,4 v -12 l 5,-21 4,-11 2,-1 6,-16 2,-6 4,-4 1,-2 h 2 l 3,-11 1,-2 h 2 l 1,-3 4,-3 1,-3 h 3 v -5 l 3,-4 h 2 l 2,-4.000001 7,-8 4,-2 2,-4 7,-6 3,-1 1,-3 h 3 v -2 l 8,-4 9,-6 10,-7 13,-7 7,-5 10,-4 9,-3 24,-8 17,-3 7,-2 z"
     fill="#cbc9a4"
     id="path2" />
  <path
     d="m 150.06263,214.98586 h 24 l 12,1 13,4 11,2 v 2 l 9,3 14,9 11,5 7,3 v 2 l 11,1 8,3 v 2 l 11,3 7,3 14,4 9,2 7,2 24,3 4,1 v 2 h 10 l 5,1 v 2 l 12,1 v 1 l -8,1 h -43 l -36,-3 -8,-2 v -2 h -7 l -24,-5 -4,-2 -11,-2 -4,-1 v -2 l -11,-1 v -2 h -7 l -3,-1 v -2 h -5 l -1,-1 -9,-2 h -30 l -10,2 -16,4 -5,1 v 2 l -11,6 -6,3 -3,2 h -3 v 2 h -2 v 2 l -5,4 -1,2 h -2.000004 v 2 h -2 l -2,6 -3,3 h -2 l -2,9 -6,13 -7,21 -2,5 -2,13 v 50 l 3,27 3,13 8,33 v 4 h 2 l 5,17 6,13 3.000004,8 3,5 2,1 2,5 v 3 h 2 l 6,11 3,3 5,9 8,8 2,1 4,7 12,13 5,5 7,4 8,9 4,2 v 2 l 5,1 6,5 v 2 h 3 v 2 l 7,1 8,6 10,4 5,3 7,2 3,1 v 2 l 9,2 18,6 v 2 l 10,1 9,3 v 1 h -12 l -23,-6 -9,-2 v -2 l -6,-1 -13,-3 -9,-3 -14,-5 v -2 h -2 v -2 l -10,-3 -8,-4 v -2 l -6,-1 v -2 l -8,-2 v -2 l -5,-1 -1,-2 -5,-3 -6,-3 v -2 l -4,-2 -2,-1 v -2 l -6,-1 -1,-3 -3,-1 -3,-4 v -2 l -4,-1 -4,-2 v -2 h -2 v -2 l -4,-2 -8.000004,-8 -5,-5 -1,-3 -4,-2 -3,-5 v -2 h -2 v -2 h -2 v -2 h -2 l -4,-6 -4,-5 -1,-6 h -2 l -4,-6 -4,-5 -4,-11 -1,-1 v -5 h -2 l -5,-16 v -2 l -3,-1 -2,-8 v -4 h -2 l -3,-13 -3,-14 -2,-7 -2,-9 -1,-17 v -43 l 2,-17 1,-2 1,-9 4,-16 5,-16 3,-5 3,-7 h 2 l 1,-6 1,-2 h 2 l 1,-5 1,-3 h 2 v -2 l 4,-3 3,-7 10,-11 1,-2 5,-3 1,-3 8,-6 6,-3 7.000004,-5 9,-4 5,-4 18,-5 z"
     fill="#b9797b"
     id="path3" />
  <path
     d="m 35.062626,53.985859 h 55 l 23.000004,3 25,4 v 2 l 6,1 22,6 v 2 l 10,3 7,2 1,2 9,2 12,8 3,3 11,5 11,8.000001 10,9 17,17 7,8 3,5 6,8 2,6 7,11 1,5 h 2 l 5,12 4,12 3,8 v 4 h 2 l 2,6 2,13 v 6 h -2 l -9,-19 -6,-10 -4,-10 -8,-10 -3,-5 -1,-6 -4,-1 -4,-6 v -2 h -2 l -2,-5 -21,-21 -5,-2 -5,-5 -9,-6 -6,-5 -3,-1 -4,-4 -4,-3 -4,-1 v -2 l -4,-1 -10,-5 -10,-3 v 3 l 9,3 5,5 9,5 11,11 5,3 12,11 1,4 7,4 3,5 4,4 3,6 13,14 4,8 v 3 h 2 l 6,11 v 2 l -14,2 h -33 l -17,-1 -11,-3 -16,-4 -3,-1 v -2 l -5,-1 -10,-3 -16,-8 -4,-2 v -2 l -5,-2 -9,-6 -13,-9 -4,-3 -3,-1 -7.000004,-8 -7,-6 v -2 l -4,-1 -4,-5 -1,-5 h -2 l -4,-4 -2,-1 -3,-5 -6,-7 -3,-6 -1,-3 h -2 l -2,-9.000001 h -2 l -1,-5 h -2 l -3,-6 -4,-10 v -2 h -2 l -4,-9 -3,-7 z"
     fill="#cac8a3"
     id="path4" />
  <path
     d="m 363.06263,484.98586 h 12 l 9,5 3,6 v 12 l -2,5 -8,7 -3,3 v 12 l 4,6 18,6 43,1 v 43 l -5,5 -5,-1 -3,-1 -1,-5 -6,-4 -9,-2 h -15 l -10,4 -4,6 -6,9 -1,3 v 15 l 1,8 h 2 l 6,8 3,2 7,2 1,1 h 18 l 8,-4 8,-6 1,-3 7,1 3,5 v 36 l -4,13 -3,5 -5,5 -2,4 h -2 v 2 l -4,3 h -3 v 2 l -5,2 h -3 v 2 l -6,2 h -18 l -14,-5 -1,-3 -7,-2 -9,-10 -2,-7 h -2 l -3,-12 v -20 h -7 l -18,-6 v -2 l -4,-2 -5,-4 v -2 l -6,-2 -2,-5 h -2 l -6,-8 -5,-15 -2,-10 v -13 l 1,-7 2,-5 2,-1 2,-9 7,-11 1,-1 40,-1 8,-2 h 6 v -2 l 6,-4 3,-5 v -10 l -1,-5 -4,-1 -7,-6 v -2 h -2 l -1,-3 v -9 l 3,-8 5,-3 h 3 z"
     fill="#86815a"
     id="path5" />
  <path
     d="m 453.06263,548.98586 h 50 l 7,3 v 6 l -4,2 v 2 l -4,4 h -2 l -2,5 -2,6 v 11 l 4,9 3,6 11,8 3,1 h 16 l 9,-2 v -2 l 5,-3 4,-5 h 2 l 3,-10 v -14 l -7,-12 -5,-6 v -5 l 7,-3 h 35 l 3,1 1,5 h 2 l 1,4 h 2 l 3,8 3,14 v 18 l -3,11 -3,6 -4,6 h -2 l -1,6 -7,8 -9,6 h -2 v 2 l -8,4 -6,2 h -12 l 1,6 v 16 l -4,12 -3,5 h -2 l -2,4 -4,4 h -2 v 2 l -7,5 -8,2 h -7 v 2 h -14 l -14,-5 -9,-3 v -2 h -2 l -2,-4 -3,-2 v -3 h -2 l -2,-7 h -2 v -3 h -2 l -3,-6 -1,-41 -4,-11 -6,-4 -1,-1 h -13 l -6,3 -6,8 -4,1 h -13 l -3,-1 -4,-5 -1,-3 -2,-1 v -12 l 4,-6 4,-4 4,-1 h 11 l 8,6 5,6 4,1 h 14 v -2 h 3 l 2,-5 2,-1 3,-14 1,-37 z"
     fill="#d9afb0"
     id="path6" />
  <path
     d="m 492.06263,379.98586 h 9 l 11,1 12,6 3,2 v 2 l 4,2 5,6 v 2 h 2 l 1,5 3,1 2,10 v 16 l -1,7 h 10 l 12,3 5,3 v 3 l 10,3 5,5 3,3 v 5 h 3 l 4,7 v 3 h 2 l 2,6 2,10 v 11 l -3,12 -6,14 h -2 l -1,4 -2,3 -28,1 -13,2 -8,3 h -3 l -1,4 -4,5 -1,12 3,1 5,5 v 2 h 2 l 5,7 v 11 l -6,9 -6,3 h -12 l -5,-2 -4,-5 v -2 h -2 l -1,-3 v -13 l 5,-5 6,-3 3,-6 v -11 l -1,-3 -8,-5 v -3 l -15,-3 -46,-1 1,-33 2,-8 h 5 l 3,4 v 2 l 4,2 2,2 9,2 h 14 l 13,-5 4,-4 2,-4 h 2 l 1,-5 1,-3 h 2 l -1,-13 -4,-10 v -3 l -4,-1 -8,-6 -3,-2 v -2 h -23 v 2 l -8,4 -2,4 -4,2 h -5 l -2,-4 v -41 l 3,-7 3,-5 2,-5 6,-8 5,-4 13,-4 z"
     fill="#cbc9a3"
     id="path7" />
  <path
     d="m 388.06263,379.98586 h 11 l 12,3 v 2 h 4 v 2 l 5,2 2,1 v 2 h 2 v 2 h 2 l 1,4 h 2 l 5,9 v 3 h 2 l 2,9 1,33 3,10 v 6 h 2 l 5,5 4,1 h 10 l 6,-1 v -2 l 3,-3 2,-4 3,-2 5,-1 h 10 l 5,1 v 2 h 2 l 3,6 v 13 l -1,2 h -2 l -1,5 h -2 v 2 l -6,2 h -11 l -2,-1 v -2 h -2 v -2 l -4,-2 -7,-6 h -11 l -8,6 -4,9 -2,10 -1,29 h -45 l -5,-2 -1,-1 v -5 l 10,-9 2,-10 v -16 l -2,-9 -4,-2 -5,-5 -6,-3 -6,-1 h -18 v 2 l -7,4 -3,2 -2,5 -4,9 h -2 l 1,13 3,8 6,8 3,1 1,7 -3,3 -8,1 h -39 l -3,-1 -3,-8 -4,-4 -4,-16 v -15 l 2,-11 4,-8 3,-5 6,-5 4,-8 6,-3 6,-4 6,-3 15,-3 h 5 v -27 l 7,-14 h 2 l 1,-6 h 2 v -2 h 5 v -2 h 2 v -3 l 4,-2 h 3 v -2 l 6,-2 z"
     fill="#ba797c"
     id="path8" />
  <path
     d="m 452.06263,219.98586 h 12 l 20,3 3,2 12,2 5,2 v 2 h 4 v 2 l 4,1 8,4 8,4 17,17 5,6 3,5 v 2 h 2 l 2,5 v 4 l 3,1 2,5 4,6 v 2 h 2 l 2,5 1,9 1,1 2,13 v 31 l -1,11 -1,2 -2,15 -7,21 -3,5 -1,4 h -2 l -1,2 v -11 l 1,-12 v -36 h -2 l -2,-11 -1,-13 -2,-5 -4,-14 -4,-10 -1,-1 v -5 h -2 v -3 l -4,-1 -2,-5 -6,-9 -3,-3 v -2 l -9,-3 -4,-3 v -2 l -9,-2 -17,-5 -7,-2 h -30 l -3,1 -11,1 -6,2 -28,4 h -48 l -16,-2 v -2 l -17,-1 -6,-2 -1,-4 29,-1 28,-4 23,-7 h 2 v -2 l 10,-5 11,-6 11,-4 9,-1 10,-2 z"
     fill="#b9797c"
     id="path9" />
  <path
     d="m 129.06263,310.98586 h 16 l 3,4 4,1 v 2 h 2 l 2,4 v 4 l 3,-1 1,-3 h 2 v -2 h 2 v -2 l 3,-3 1,-2 8,-2 h 10 l 8,3 3,5 2,1 1,3 v 12 l -2,7 -5,7 -1,3 h -2 l -2,4 h -2 v 2 h -2 v 2 l -5,3 h -2 v 2 h -2 l -1,4 -5,3 h -3 v 2 l -5,1 v 2 h -6 l -9,-4 v -2 l -4,-1 -7,-6 v -3 l -4,-1 -2,-2 v -3 l -4,-2 -7,-9 -2,-9 v -12 l 3,-7 7,-3 z"
     fill="#ba797c"
     id="path10" />
  <path
     d="m 402.06263,234.98586 2,1 -8,6 -12,4 -18,5 -20,4 -21,2 15,2 1,1 13,2 h 45 l 17,-3 6,-2 21,-3 11,-1 h 14 l 12,1 10,2 8,3 12,4 1,2 -9,-2 -17,-5 -7,-2 h -30 l -3,1 -11,1 -6,2 -28,4 h -48 l -16,-2 v -2 l -17,-1 -6,-2 -1,-4 29,-1 28,-4 23,-7 h 2 v -2 z"
     fill="#dcbbbc"
     id="path11" />
  <path
     d="m 168.06263,616.98586 4,1 13,5 v 2 h 2 v 2 l 9,2 13,4 9,3 11,3 v 2 l 14,2 18,5 h 9 l -6,-2 v -1 l 8,1 21,3 v 2 h 7 v 2 h -16 l -4,-1 -17,-1 -20,-4 -16,-5 -13,-5 -17,-5 -11,-4 v -2 l -5,-1 v -2 l -5,-1 -6,-2 v -2 z"
     fill="#e2c3c4"
     id="path12" />
  <path
     d="m 380.06263,541.98586 9,3 7,2 43,1 v 43 l -3,4 -2,-1 1,-1 1,-42 h -39 l -9,-4 -8,-2 z"
     fill="#9f9a7c"
     id="path13" />
  <path
     d="m 451.06263,546.98586 h 51 l 5,2 -4,1 h -50 l -1,37 -3,14 -4,4 -1,2 h -3 v 2 l -3,1 h -11 l -5,-2 -4,-4 1,-2 4,4 6,1 h 8 l 6,-3 4,-6 2,-11 1,-39 z"
     fill="#ecd9d6"
     id="path14" />
  <path
     d="m 454.06263,492.98586 h 7 l 10,11 h -3 l -5,-4 -3,-5 -5,-1 -1,8 -1,25 -1,8 h 46 l 15,4 -4,1 -12,-2 -47,-1 v -37 z"
     fill="#e1dcc9"
     id="path15" />
  <path
     d="m 69.062626,343.98586 h 2 l -1,8 v 50 l 3,27 3,13 8,33 -1,4 -3,-10 -1,-10 h -2 l -4,-14 -2,-14 -2,-7 -2,-13 v -49 l 1,-14 z"
     fill="#d7b2b5"
     id="path16" />
  <path
     d="m 402.06263,234.98586 2,1 -8,6 -12,4 -18,5 -20,4 -21,2 15,2 1,2 -8,-1 -14,-1 -6,-2 -1,-4 29,-1 28,-4 23,-7 h 2 v -2 z"
     fill="#c89698"
     id="path17" />
  <path
     d="m 361.06263,273.98586 h 29 l -1,4 -25,2 h -44 l -11,-1 -1,-1 -10,-1 -2,-2 26,2 h 43 l 1,-1 -5,-1 z"
     fill="#dab4b4"
     id="path18" />
  <path
     d="m 30.062626,343.98586 1,4 -1,15 v 52 l 3,19 4,18 6,21 1,6 -2,-1 -2,-8 v -4 h -2 l -3,-13 -3,-14 -2,-7 -2,-9 -1,-17 v -43 l 2,-17 z"
     fill="#c99b9d"
     id="path19" />
  <path
     d="m 157.06263,247.98586 h 36 l 11,2 1,1 8,1 7,2 v 2 l 6,1 11,4 v 2 l -9,-2 v -2 l -11,-1 v -2 h -7 l -3,-1 v -2 h -5 l -1,-1 -9,-2 h -30 l -10,2 -16,4 -5,1 v 2 l -11,6 -6,3 -4,2 v -2 l 7,-5 9,-4 1,-2 18,-6 z"
     fill="#d8b2b2"
     id="path20" />
  <path
     d="m 588.06263,461.98586 h 2 v 2 h 2 l 1,4 h 2 l 6,14 1,3 v 21 l -6,18 h -2 l -1,5 h -2 l -1,4 -3,4 -37,1 -6,2 -4,-1 9,-3 10,-1 h 28 l 2,-4 1,-3 h 2 l 3,-9 3,-7 2,-10 v -11 l -2,-10 -1,-1 v -5 h -2 l -4,-8 v -2 h -3 z"
     fill="#e1ddca"
     id="path21" />
  <path
     d="m 564.06263,291.98586 2,1 v 2 h 2 l 2,5 1,9 1,1 2,13 v 31 l -1,11 -1,2 -2,15 -7,21 -2,1 3,-11 2,-6 2,-9 2,-16 1,-2 v -47 h -2 l -2,-10 z"
     fill="#c8969a"
     id="path22" />
  <path
     d="m 459.06263,398.98586 1,4 -5,8 -1,4 v 41 l 1,3 8,-1 -2,4 -7,-1 -4,-6 v -37 l 4,-11 h 2 l 2,-7 z"
     fill="#d9d6bd"
     id="path23" />
  <path
     d="m 346.06263,164.98586 1,2 -3,5 -3,4 h 9 l 2,1 h 35 l 13,-2 11,-1 13,-2 -2,2 -26,5 -7,1 h -31 l -14,-2 -4,-1 1,-5 3,-3 z"
     fill="#e2ddca"
     id="path24" />
  <path
     d="m 531.06263,21.985859 h 48 l 1,5 -2,5 -1,-2 1,-6 -54,1 -13,1 -4,1 h -14 l 2,-2 z"
     fill="#dfd9c4"
     id="path25" />
  <path
     d="m 352.06263,544.98586 3,1 -5,2 h -5 v 2 l -6,1 -34,1 -3,1 v 5 l -2,3 h -3 l -1,4 -1,-2 5,-10 4,-5 40,-1 z"
     fill="#b5b099"
     id="path26" />
  <path
     d="m 436.06263,411.98586 2,2 v 4 h 2 l 1,33 1,10 h 2 l 3,9 5,2 h 16 l 2,-4 4,-4 -2,6 -3,1 v 2 l -6,2 h -10 l -7,-3 -2,-4 h -2 l -4,-16 -1,-33 z"
     fill="#e0c3c3"
     id="path27" />
  <path
     d="m 453.06263,548.98586 h 50 l 7,3 v 6 l -4,2 1,-7 -2,-1 -52,-1 v 33 h -1 v -34 z"
     fill="#e1bfc0"
     id="path28" />
  <path
     d="m 284.06263,197.98586 3,3 5,10 h 4 l 3,-1 2,6 2,13 v 6 h -2 l -9,-19 -6,-10 z"
     fill="#d4cfb2"
     id="path29" />
  <path
     d="m 113.06263,56.985859 h 9 l 20,4 11,3 8,3 15,5 5,3 7,4 1,2 -6,-2 v -2 l -9,-2 -8,-3 v -2 l -6,-1 -16,-4 -6,-2 v -2 l -13,-1 -12,-2 z"
     fill="#e4decd"
     id="path30" />
  <path
     d="m 551.06263,546.98586 h 35 l 2,4 h -37 l -6,2 -1,5 h -2 v -6 l 7,-4 z"
     fill="#e9d2d2"
     id="path31" />
  <path
     d="m 236.06263,636.98586 6,1 12,4 v 2 l 10,1 9,3 v 1 h -12 l -23,-6 -6,-1 v -1 h 6 v -3 z"
     fill="#c59190"
     id="path32" />
  <path
     d="m 429.06263,627.98586 7,1 3,5 v 36 l -4,13 -4,5 1,-5 1,-1 3,-19 v -29 l -1,-4 h -6 z"
     fill="#b1ac96"
     id="path33" />
  <path
     d="m 263.06263,194.98586 h 2 l 4,7 -1,5 -10,1 h -35 l -8,-2 v -1 h 38 l 14,-1 -4,-7 z"
     fill="#e4dfcf"
     id="path34" />
  <path
     d="m 556.06263,354.98586 h 1 l 1,8 v 28 l -1,21 1,3 -2,6 -2,4 -3,1 2,-15 h 2 v -17 l 1,-10 z"
     fill="#dbb8b9"
     id="path35" />
  <path
     d="m 443.06263,218.98586 h 31 l 10,3 -4,1 -16,-2 h -12 l -15,2 -2,1 -9,1 -15,5 v -2 l 14,-5 z"
     fill="#dcbaba"
     id="path36" />
  <path
     d="m 150.06263,214.98586 h 24 l 12,1 6,2 v 1 h -8 v -2 l -38,1 -16,2 -12,4 h -5 l 2,-2 18,-5 z"
     fill="#d7b0b0"
     id="path37" />
  <path
     d="m 315.06263,163.98586 1,4 -6,25 -1,5 h 2 l 1,-5 2,-4 1,2 -4,12 -5,5 v -12 l 5,-21 z"
     fill="#e1dcc8"
     id="path38" />
  <path
     d="m 536.06263,400.98586 h 2 l 1,5 3,1 2,10 v 16 l -1,7 h 10 l 12,3 5,4 -6,-1 -3,-2 -18,-2 -1,-1 -1,-26 -2,-7 -3,-5 z"
     fill="#d9d6bd"
     id="path39" />
  <path
     d="m 173.06263,101.98586 h 5 l 11,5 8,4 v 2 l 5,1 1,2 -9,-3 h -3 l 2,4 -8,-5 -4,-4 -6,-2 -2,-1 z"
     fill="#e6e0d0"
     id="path40" />
  <path
     d="m 532.06263,283.98586 5,3 1,5 h 2 v 3 h 2 l 2,6 6,16 3,10 2,7 1,21 h -1 l -2,-11 -1,-13 -2,-5 -4,-14 -4,-10 -1,-1 v -5 h -2 v -3 l -4,-1 -2,-5 z"
     fill="#d7b2b3"
     id="path41" />
  <path
     d="m 488.06263,26.985859 4,1 -9,3 -20,4 -17,6 -8,4 -9,2 -5,3 -2,-1 9,-5 7,-3 9,-3 24,-8 z"
     fill="#e1dac9"
     id="path42" />
  <path
     d="m 380.06263,541.98586 9,3 7,2 43,1 v 43 h -1 l -1,-41 -42,-1 -15,-4 z"
     fill="#c8c3b2"
     id="path43" />
  <path
     d="m 573.06263,639.98586 2,1 -5,2 v 2 l -8,4 -6,2 h -12 l 1,6 v 16 l -4,12 -2,1 3,-11 1,-25 14,-2 9,-4 z"
     fill="#e7cfce"
     id="path44" />
  <path
     d="m 28.062626,409.98586 h 1 l 2,9 2,15 4,18 6,21 1,6 -2,-1 -2,-8 v -4 h -2 l -3,-13 -3,-14 -2,-7 -2,-9 z"
     fill="#d2aaab"
     id="path45" />
  <path
     d="m 147.06263,183.98586 6,1 2,1 v 2 l 4,1 16,5 v 2 l 12,2 12,3 6,2 8,1 v 1 h -10 l -11,-3 -16,-4 -3,-1 v -2 l -5,-1 -10,-3 -11,-6 z"
     fill="#e0dbc7"
     id="path46" />
  <path
     d="m 87.062626,294.98586 1,2 -4,9 -6,16 -4,12 -2,5 -1,-4 5,-18 5,-14 h 2 l 1,-5 h 2 z"
     fill="#d4adad"
     id="path47" />
  <path
     d="m 355.06263,395.98586 2,1 -1,3 h -2 l -2,5 -4,9 -1,27 -22,4 1,-2 13,-3 h 7 l -1,-3 v -15 l 1,-10 4,-8 3,-6 h 2 z"
     fill="#dab5b6"
     id="path48" />
  <path
     d="m 184.06263,247.98586 h 9 l 11,2 1,1 8,1 7,2 v 2 l 6,1 11,4 v 2 l -9,-2 v -2 l -11,-1 v -2 h -7 l -3,-1 v -2 h -5 l -1,-1 -17,-3 z"
     fill="#dcbaba"
     id="path49" />
  <path
     d="m 307.06263,455.98586 2,1 -6,8 -4,2 -1,4 -4,7 -2,5 -1,8 v 15 l 2,8 -1,4 -2,-4 -1,-7 v -21 l 4,-12 4,-8 h 2 v -2 h 2 v -2 h 2 l 1,-4 z"
     fill="#dfc2c2"
     id="path50" />
  <path
     d="m 351.06263,532.98586 2,1 -7,3 h -43 l 1,-3 h 39 z"
     fill="#dfc0c1"
     id="path51" />
  <path
     d="m 403.06263,97.985859 1,3.000001 -23,23 -5,5 -6,7 -1,-2 9,-11 9,-8 3,-5 7,-7 h 2 v -2 z"
     fill="#d9d5bb"
     id="path52" />
  <path
     d="m 439.06263,494.98586 2,1 -2,10 -1,29 h -45 l -5,-2 2,-1 5,1 42,1 v -32 h 2 z"
     fill="#c58d8c"
     id="path53" />
  <path
     d="m 493.06263,377.98586 h 12 l 14,4 5,3 v 2 l -7,-2 -5,-3 -11,-1 h -9 l -7,2 -9,3 -2,-1 9,-5 z"
     fill="#dfdac6"
     id="path54" />
  <path
     d="m 46.062626,290.98586 h 2 l -2,10 h -2 l -1,5 -1,2 h -2 l -2,10 -4,17 -2,8 h -1 v -8 l 4,-16 5,-16 3,-5 z"
     fill="#dbbcbe"
     id="path55" />
  <path
     d="m 361.06263,273.98586 h 29 l -1,4 -23,1 v -1 l 5,-1 -10,-2 z"
     fill="#e6cece"
     id="path56" />
  <path
     d="m 341.06263,251.98586 h 9 v 1 l -14,2 -15,1 v 2 l 3,1 -9,-1 -3,-3 v -2 z"
     fill="#d9b4b5"
     id="path57" />
  <path
     d="m 418.06263,699.98586 2,1 -4,1 v 2 l -5,2 h -3 v 2 l -6,2 h -18 l -14,-5 -1,-2 9,3 5,1 h 17 l 13,-4 h 2 v -2 z"
     fill="#b8b39c"
     id="path58" />
  <path
     d="m 383.06263,378.98586 h 18 l 8,2 6,3 -4,1 v -2 h -5 l -7,-2 h -11 l -9,1 -6,1 v 2 l -7,2 v 3 h -2 v 2 h -3 v -2 h 2 v -2 h 2 v -2 l 4,-2 h 3 v -2 z"
     fill="#dfbfbf"
     id="path59" />
  <path
     d="m 422.06263,634.98586 h 2 l -1,4 -9,5 h -18 l -8,-3 v -2 l 5,1 1,1 h 18 l 8,-4 z"
     fill="#afa991"
     id="path60" />
  <path
     d="m 402.06263,234.98586 2,1 -8,6 -12,4 -18,5 -16,1 3,-2 16,-2 23,-7 h 2 v -2 z"
     fill="#d2a4a6"
     id="path61" />
  <path
     d="m 459.06263,398.98586 1,4 -5,8 -2,5 -1,12 -1,27 h -1 v -37 l 4,-11 h 2 l 2,-7 z"
     fill="#e7e1d3"
     id="path62" />
  <path
     d="m 237.06263,262.98586 h 6 l 9,3 19,4 7,1 v 2 l 8,1 -4,1 -14,-2 -2,-1 v -2 h -8 l -12,-3 -6,-1 v -2 z"
     fill="#dcbcba"
     id="path63" />
  <path
     d="m 374.06263,79.985859 2,1 -12,13 -8,8.000001 -5,5 -4,3 2,-4 1,-2 h 2 l 2,-4.000001 7,-8 4,-2 2,-4 z"
     fill="#d9d6bc"
     id="path64" />
  <path
     d="m 449.06263,593.98586 1,2 -2,6 -3,3 -1,2 h -3 v 2 l -3,1 h -11 l -5,-2 -4,-4 1,-2 4,4 6,1 h 8 l 6,-3 z"
     fill="#e8cdcc"
     id="path65" />
  <path
     d="m 362.06263,470.98586 h 14 l 8,2 6,4 2,3 -6,-2 v -2 l -11,-3 h -16 l -1,3 -7,4 -4,2 1,-3 7,-5 h 3 v -2 z"
     fill="#dab5b4"
     id="path66" />
  <path
     d="m 88.062626,237.98586 1,3 -3,1 -2,4 -11,11 -6,3 2,-4 5,-6 5,-3 1,-3 z"
     fill="#c89496"
     id="path67" />
  <path
     d="m 448.06263,625.98586 h 2 l 2,6 1,38 2,5 v 5 l -3,-4 -1,-2 -1,-41 z"
     fill="#e6cdcb"
     id="path68" />
  <path
     d="m 292.06263,569.98586 h 1 v 8 h -2 v 15 l 2,10 1,1 1,9 -2,-1 -4,-17 v -13 l 1,-7 z"
     fill="#b4ae97"
     id="path69" />
  <path
     d="m 395.06263,581.98586 h 15 l 9,2 7,5 -1,3 -4,-3 v -2 l -5,-1 -7,-2 h -13 l -5,2 h -3 v 2 l -5,1 4,-4 z"
     fill="#c9c4b3"
     id="path70" />
  <path
     d="m 172.06263,309.98586 h 17 l 3,2 -1,2 -5,-2 h -10 l -8,1 -2,5 h -2 v 2 h -2 v 2 h -2 l -1,4 h -3 v -2 h 3 l 1,-5 h 3 v -3 h 2 v -2 h 2 v -2 z"
     fill="#dab4b7"
     id="path71" />
  <path
     d="m 323.06263,266.98586 19,2 4,1 v 2 h 10 l 5,1 v 1 l -18,-1 -14,-2 -6,-3 z"
     fill="#d8b0b0"
     id="path72" />
  <path
     d="m 442.06263,463.98586 1,2 h 2 l 2,4 5,2 h 16 l 2,-4 4,-4 -2,6 -3,1 v 2 l -6,2 h -10 l -7,-3 -2,-4 h -2 z"
     fill="#d5acae"
     id="path73" />
  <path
     d="m 168.06263,616.98586 4,1 13,5 v 2 h 2 v 2 l 9,2 11,4 1,2 -11,-3 -11,-4 v -2 l -5,-1 v -2 l -5,-1 -6,-2 v -2 z"
     fill="#e2c6c6"
     id="path74" />
  <path
     d="m 531.06263,21.985859 h 48 l 1,5 -2,5 -1,-2 1,-6 -47,-1 z"
     fill="#e7dfd1"
     id="path75" />
  <path
     d="m 207.06263,632.98586 16,4 6,2 v 2 l 14,2 2,2 -15,-2 -14,-5 -8,-3 z"
     fill="#dbb5b5"
     id="path76" />
  <path
     d="m 235.06263,642.98586 16,2 10,3 12,2 v 1 h -10 l -20,-4 -8,-3 z"
     fill="#e8cdcc"
     id="path77" />
  <path
     d="m 393.06263,596.98586 2,1 -5,5 -2,4 -1,12 3,1 3,5 1,2 -4,-1 v -2 h -2 l -3,-8 v -7 l 3,-7 z"
     fill="#ebd7d5"
     id="path78" />
  <path
     d="m 192.06263,218.98586 7,1 11,2 v 2 l 9,3 5,3 -2,1 -5,-2 v -2 l -9,-2 -7,-1 -9,-4 z"
     fill="#d9b3b2"
     id="path79" />
  <path
     d="m 542.06263,433.98586 h 1 v 6 h 10 l 12,3 5,4 -6,-1 -3,-2 -18,-2 -1,-1 z"
     fill="#dddac0"
     id="path80" />
  <path
     d="m 557.06263,390.98586 h 1 v 13 h 2 l 1,-6 2,1 -4,13 h -2 l -1,2 v -11 z"
     fill="#c38d8f"
     id="path81" />
  <path
     d="m 135.06263,362.98586 4,1 8,6 v 2 l 9,3 4,1 v -2 l 6,-1 -2,2 h -3 v 2 h -6 l -9,-4 v -2 l -4,-1 -7,-6 z"
     fill="#d4abab"
     id="path82" />
  <path
     d="m 564.06263,291.98586 2,1 v 2 h 2 l 2,5 1,9 1,1 1,11 -2,-3 v -5 h -2 l -2,-10 z"
     fill="#ddbdc0"
     id="path83" />
  <path
     d="m 570.06263,369.98586 h 1 v 7 l -5,17 -4,10 -1,-2 5,-15 2,-9 z"
     fill="#d3acad"
     id="path84" />
  <path
     d="m 398.06263,487.98586 3,3 1,5 v 15 l -3,5 -1,-2 1,-6 v -16 z"
     fill="#d6acae"
     id="path85" />
  <path
     d="m 432.06263,72.985859 h 3 v 2 l -5,3 h -2 v 2 h -2 v 2 l -4,3 -3,-1 4,-4 -2,-1 h 2 v -2 z"
     fill="#ece6d8"
     id="path86" />
  <path
     d="m 293.06263,258.98586 20,3 9,4 -4,1 -16,-4 -9,-3 z"
     fill="#e1bfbf"
     id="path87" />
  <path
     d="m 378.06263,485.98586 5,1 4,4 2,8 v 8 l -3,3 v -14 l -2,-6 -5,-2 z"
     fill="#bdb8a3"
     id="path88" />
  <path
     d="m 588.06263,461.98586 h 2 v 2 h 2 l 1,4 h 2 l 6,14 1,8 -2,-4 -3,-6 v -5 h -2 l -4,-8 v -2 h -3 z"
     fill="#e4decf"
     id="path89" />
  <path
     d="m 119.06263,315.98586 h 2 l -1,4 -2,6 v 8 l 4,11 -1,3 -3,-4 -2,-9 v -12 z"
     fill="#d3a8aa"
     id="path90" />
  <path
     d="m 157.06263,247.98586 h 27 v 1 l -22,1 -10,2 -3,-1 z"
     fill="#dfc0bf"
     id="path91" />
  <path
     d="m 184.06263,247.98586 h 9 l 11,2 1,1 8,1 7,2 -1,2 -7,-2 -10,-1 -1,-1 -17,-3 z"
     fill="#d1a4a3"
     id="path92" />
  <path
     d="m 439.06263,494.98586 2,1 -2,10 -1,29 h -1 v -33 h 2 z"
     fill="#cb9b9b"
     id="path93" />
  <path
     d="m 493.06263,377.98586 h 12 l 14,4 5,3 v 2 l -7,-2 -5,-3 -19,-3 z"
     fill="#e6e1d1"
     id="path94" />
  <path
     d="m 108.06263,269.98586 2,1 -3,5 -6,6 h -2.000004 v 2 l -4,1 1,-3 h 2 v -2 h 2.000004 l 2,-4 4,-2 v -2 h 2 z"
     fill="#e1c6c6"
     id="path95" />
  <path
     d="m 28.062626,409.98586 h 1 l 2,9 1,19 h -1 l -3,-15 z"
     fill="#dbbaba"
     id="path96" />
  <path
     d="m 264.06263,644.98586 8,1 13,4 v 1 h -12 l -5,-1 2,-2 -6,-2 z"
     fill="#d5acab"
     id="path97" />
  <path
     d="m 298.06263,209.98586 2,2 3,17 v 6 h -2 l -2,-6 1,-4 -2,-11 z"
     fill="#dcd8c4"
     id="path98" />
  <path
     d="m 56.062626,272.98586 2,1 -5,12 -5,5 1,-6 1,-2 h 2 l 1,-5 1,-3 h 2 z"
     fill="#d3abad"
     id="path99" />
  <path
     d="m 342.06263,488.98586 1,2 -1,3 h -2 l 1,13 3,8 2,4 -3,-1 -3,-4 -1,-6 v -15 h 2 z"
     fill="#d6b0b0"
     id="path100" />
  <path
     d="m 312.06263,252.98586 h 17 v 1 l -12,1 v 2 l 7,1 v 1 l -9,-1 -3,-3 z"
     fill="#e6cbcb"
     id="path101" />
  <path
     d="m 598.06263,567.98586 2,4 2,5 v 21 h -1 l -1,-16 -2,-7 z"
     fill="#e8d2d1"
     id="path102" />
  <path
     d="m 538.06263,539.98586 2,1 -6,7 -2,1 -2,13 h -1 v -12 l 5,-6 1,-3 z"
     fill="#e9e3d4"
     id="path103" />
  <path
     d="m 475.06263,490.98586 h 2 v 2 h 13 l 6,-1 v 2 l -4,2 h -12 l -4,-2 z"
     fill="#dfc0c1"
     id="path104" />
  <path
     d="m 532.06263,283.98586 5,3 1,5 h 2 v 3 h 2 l 2,6 2,6 -3,-3 -2,-3 v -5 h -2 v -3 l -4,-1 -2,-5 z"
     fill="#ca9b9c"
     id="path105" />
  <path
     d="m 453.06263,479.98586 h 11 l 5,5 -7,-2 h -10 l -5,2 4,-4 z"
     fill="#dcbcbb"
     id="path106" />
  <path
     d="m 598.06263,608.98586 1,3 -3,8 h -2 v 2 h -2 l -1,5 -3,1 1,-5 h 2 l 2,-5 3,-5 z"
     fill="#e9d2d1"
     id="path107" />
  <path
     d="m 497.06263,593.98586 4,5 2,4 9,7 -2,1 -6,-4 -6,-7 z"
     fill="#e7cdcc"
     id="path108" />
  <path
     d="m 361.06263,273.98586 h 13 l 8,1 v 2 h -9 l -12,-2 z"
     fill="#d2a6a8"
     id="path109" />
  <path
     d="m 484.06263,222.98586 7,1 9,2 8,4 -4,1 v -2 l -5,-1 -12,-2 z"
     fill="#dcb9ba"
     id="path110" />
  <path
     d="m 388.06263,638.98586 5,1 1,1 h 21 l -2,2 h -21 l -4,-2 z"
     fill="#cec8b8"
     id="path111" />
  <path
     d="m 130.06263,308.98586 h 9 l 2,2 -12,1 -7,4 -1,-2 3,-1 2,-3 z"
     fill="#dcb8ba"
     id="path112" />
  <path
     d="m 455.06263,679.98586 1,3 h 2 l 2,4 v 3 h 2 l 1,3 4,4 -5,-2 -6,-8 z"
     fill="#e9d2d2"
     id="path113" />
  <path
     d="m 293.06263,649.98586 h 8 l 3,1 v 3 h -20 v -1 h 16 v -2 h -7 z"
     fill="#eddcda"
     id="path114" />
  <path
     d="m 105.06263,524.98586 h 2 l 1,5 h 2 v 2 h 2 l 2,7 h 2 l 1,5 -4,-3 -4,-8 v -2 h -2 z"
     fill="#dfbec1"
     id="path115" />
  <path
     d="m 166.06263,70.985859 9,2 10,4 4,4 -6,-2 v -2 l -9,-2 -8,-3 z"
     fill="#ded9c4"
     id="path116" />
  <path
     d="m 95.062626,503.98586 2,4 h 2 l 4.000004,12 v 3 l -4.000004,-6 -4,-10 z"
     fill="#d9b7b8"
     id="path117" />
  <path
     d="m 363.06263,484.98586 h 12 v 1 l -10,1 -4,1 -2,4 -4,4 1,-5 h 2 l 2,-4 h 3 z"
     fill="#979271"
     id="path118" />
  <path
     d="m 150.06263,605.98586 3,1 v 2 l 6,1 2,1 v 2 l 6,1 1,3 h -3 v -2 l -5,-1 -3,-1 v -2 l -5,-1 v -2 h -2 z"
     fill="#dcbcbe"
     id="path119" />
  <path
     d="m 426.06263,393.98586 5,4 1,4 h 2 l 2,3 v 5 h -2 l -4,-9 -1,-3 h -2 z"
     fill="#dab7b8"
     id="path120" />
  <path
     d="m 478.06263,147.98586 2,1 -5,5 -10,3 v -2 l 8,-4 h 2 v -2 z"
     fill="#e5e0d0"
     id="path121" />
  <path
     d="m 553.06263,410.98586 h 1 v 8 h 2 l 1,-3 -1,5 -2,4 -3,1 z"
     fill="#e9d2d1"
     id="path122" />
  <path
     d="m 46.062626,290.98586 h 2 l -2,10 h -2 l -1,5 -2,2 v -4 h 2 l 1,-10 z"
     fill="#d0a6a8"
     id="path123" />
  <path
     d="m 76.062626,321.98586 1,4 -5,13 -1,-4 3,-10 z"
     fill="#dcbcbc"
     id="path124" />
  <path
     d="m 271.06263,178.98586 5,5 4,6 3,4 -1,2 -8,-10 -3,-5 z"
     fill="#e1dcc7"
     id="path125" />
  <path
     d="m 173.06263,101.98586 h 5 l 8,4 -3,1 -5,-2 v 2 l -5,-2 z"
     fill="#d9d4bb"
     id="path126" />
  <path
     d="m 497.06263,448.98586 9,3 4,5 -1,2 -9,-7 z"
     fill="#dfdac3"
     id="path127" />
  <path
     d="m 380.06263,541.98586 9,3 8,3 -2,1 -15,-4 z"
     fill="#bab49e"
     id="path128" />
  <path
     d="m 289.06263,274.98586 h 7 l 2,1 10,1 v 1 h -15 z"
     fill="#e9d6d4"
     id="path129" />
  <path
     d="m 307.06263,455.98586 2,1 -6,8 -3,2 1,-5 h 2 l 1,-4 z"
     fill="#d0a7a8"
     id="path130" />
  <path
     d="m 122.06263,347.98586 4,2 7,8 -1,3 -3,-3 v -3 l -4,-2 -3,-3 z"
     fill="#d5aeaf"
     id="path131" />
  <path
     d="m 508.06263,230.98586 7,2 7,5 -1,2 -6,-4 -7,-3 z"
     fill="#dbb6b6"
     id="path132" />
  <path
     d="m 418.06263,79.985859 h 5 l -2,4 h -2 l -2,4 -1,-2 v -4 z"
     fill="#f4ece2"
     id="path133" />
  <path
     d="m 291.06263,595.98586 h 1 l 1,7 1,1 1,9 -2,-1 -2,-7 z"
     fill="#a39d82"
     id="path134" />
  <path
     d="m 572.06263,354.98586 h 1 v 10 l -2,5 h -1 v -8 z"
     fill="#c8989b"
     id="path135" />
  <path
     d="m 323.06263,266.98586 9,1 6,2 v 1 h -9 l -6,-3 z"
     fill="#cc9a9b"
     id="path136" />
  <path
     d="m 178.06263,605.98586 4,2 6,4 2,3 h -3 v -2 h -3 v -2 l -4,-2 z"
     fill="#dbb4b5"
     id="path137" />
  <path
     d="m 301.06263,553.98586 1,4 -2,3 h -3 l -1,4 -1,-2 3,-6 z"
     fill="#a7a489"
     id="path138" />
  <path
     d="m 501.06263,482.98586 h 1 l -1,7 -2,2 h -3 v -2 h 2 l 1,-5 h 2 z"
     fill="#debdbe"
     id="path139" />
  <path
     d="m 555.06263,440.98586 7,1 8,4 -4,1 -8,-4 z"
     fill="#e4decb"
     id="path140" />
  <path
     d="m 569.06263,304.98586 2,4 1,1 1,11 -2,-3 v -5 h -2 z"
     fill="#d4aeb0"
     id="path141" />
  <path
     d="m 393.06263,93.985859 2,1 -2,3 -10,5.000001 v -2 l 5,-2.000001 v -2 z"
     fill="#e1dcc9"
     id="path142" />
  <path
     d="m 430.06263,687.98586 1,4 -4,5 -2,-1 4,-7 z"
     fill="#d1ccbe"
     id="path143" />
  <path
     d="m 352.06263,477.98586 2,1 -8,8 -1,2 -2,-1 5,-7 z"
     fill="#f0e3e0"
     id="path144" />
  <path
     d="m 321.06263,174.98586 1,3 h -2 l -1,5 -3,6 -1,-4 4,-8 h 2 z"
     fill="#dfdac4"
     id="path145" />
  <path
     d="m 434.06263,70.985859 h 6 v 2 l -6,4 -2,-1 3,-1 v -2 l -2,-1 z"
     fill="#dad5bb"
     id="path146" />
  <path
     d="m 452.06263,456.98586 3,2 8,-1 -2,4 -7,-1 z"
     fill="#e2ddcb"
     id="path147" />
  <path
     d="m 417.06263,583.98586 5,2 4,3 -1,3 -4,-3 v -2 h -3 z"
     fill="#b1aa94"
     id="path148" />
  <path
     d="m 248.06263,241.98586 9,3 1,2 -7,-1 v -2 l -3,-1 z"
     fill="#e0bebc"
     id="path149" />
  <path
     d="m 88.062626,237.98586 1,3 -5,3 -1,2 h -3 v -2 z"
     fill="#d5aeaf"
     id="path150" />
  <path
     d="m 238.06263,638.98586 5,1 -2,1 v 2 l -9,-1 v -1 h 6 z"
     fill="#c18887"
     id="path151" />
  <path
     d="m 139.06263,598.98586 4,2 5,3 v 2 h -3 v -2 h -3 v -2 h -2 z"
     fill="#e2c6c6"
     id="path152" />
  <path
     d="m 378.06263,485.98586 5,1 4,4 -3,1 v -2 l -5,-2 z"
     fill="#c3beab"
     id="path153" />
  <path
     d="m 532.06263,283.98586 5,3 1,6 -3,-1 -2,-5 z"
     fill="#d4adad"
     id="path154" />
  <path
     d="m 204.06263,87.985859 6,2 4,5 -6,-2 z"
     fill="#e2ddcb"
     id="path155" />
  <path
     d="m 561.06263,58.985859 2,1 -3,8 h -2 l -1,2 1,-6 h 2 z"
     fill="#ded9c4"
     id="path156" />
  <path
     d="m 472.06263,385.98586 2,1 -5,4 -2,3 -3,-1 z"
     fill="#dfdac5"
     id="path157" />
  <path
     d="m 278.06263,271.98586 h 9 l 4,3 -8,-1 -5,-1 z"
     fill="#cb9b9a"
     id="path158" />
  <path
     d="m 296.06263,221.98586 h 2 v 3 h 3 v 5 l -4,-3 z"
     fill="#d4d0b6"
     id="path159" />
  <path
     d="m 179.06263,215.98586 h 7 l 6,2 v 1 h -8 v -2 h -5 z"
     fill="#e2c3c1"
     id="path160" />
  <path
     d="m 339.06263,118.98586 1,4 -4,2 -1,3 -1,-2 2,-4 h 2 z"
     fill="#e0dcc9"
     id="path161" />
  <path
     d="m 388.06263,618.98586 2,1 3,5 1,2 -4,-1 v -2 h -2 z"
     fill="#e8cbcb"
     id="path162" />
  <path
     d="m 410.06263,595.98586 5,1 v 2 h 2 l 1,3 -5,-2 -1,-3 z"
     fill="#e9d1cf"
     id="path163" />
  <path
     d="m 469.06263,450.98586 2,1 -5,6 -2,-1 2,-4 z"
     fill="#e7e1d0"
     id="path164" />
  <path
     d="m 412.06263,81.985859 2,1 -3,3 -7,2 3,-3 h 2 v -2 z"
     fill="#ded8c2"
     id="path165" />
  <path
     d="m 305.06263,201.98586 h 1 l 1,5 2,-2 -1,5 h -3 z"
     fill="#ede6db"
     id="path166" />
</svg>
